<mxfile host="app.diagrams.net" modified="2024-03-07T20:22:51.681Z" agent="Mozilla/5.0 (X11; Ubuntu; Linux x86_64; rv:123.0) Gecko/20100101 Firefox/123.0" etag="Yzn7IHgL_x_FtUVEatU0" version="22.1.18" type="device">
  <diagram name="Page-1" id="RZmHcgOGl5Ux7OGqU4Jc">
    <mxGraphModel dx="2004" dy="795" grid="1" gridSize="10" guides="1" tooltips="1" connect="1" arrows="1" fold="1" page="1" pageScale="1" pageWidth="850" pageHeight="1100" math="0" shadow="0">
      <root>
        <mxCell id="0" />
        <mxCell id="1" parent="0" />
        <mxCell id="tiZaJbTYeU3agWYPuZ5V-1" value="evoPlanet" style="rounded=0;whiteSpace=wrap;html=1;" vertex="1" parent="1">
          <mxGeometry x="360" y="380" width="120" height="60" as="geometry" />
        </mxCell>
        <mxCell id="tiZaJbTYeU3agWYPuZ5V-2" value="user" style="shape=umlActor;verticalLabelPosition=bottom;verticalAlign=top;html=1;outlineConnect=0;" vertex="1" parent="1">
          <mxGeometry x="405" y="230" width="30" height="60" as="geometry" />
        </mxCell>
        <mxCell id="tiZaJbTYeU3agWYPuZ5V-4" value="" style="endArrow=classic;html=1;rounded=0;entryX=0.5;entryY=0;entryDx=0;entryDy=0;" edge="1" parent="1" source="tiZaJbTYeU3agWYPuZ5V-2" target="tiZaJbTYeU3agWYPuZ5V-1">
          <mxGeometry width="50" height="50" relative="1" as="geometry">
            <mxPoint x="400" y="440" as="sourcePoint" />
            <mxPoint x="450" y="390" as="targetPoint" />
          </mxGeometry>
        </mxCell>
        <mxCell id="tiZaJbTYeU3agWYPuZ5V-5" value="Creates, views, shares planetary systems" style="text;html=1;align=center;verticalAlign=middle;resizable=0;points=[];autosize=1;strokeColor=none;fillColor=none;" vertex="1" parent="1">
          <mxGeometry x="290" y="328" width="240" height="30" as="geometry" />
        </mxCell>
      </root>
    </mxGraphModel>
  </diagram>
</mxfile>
